Coordinates
version=1
nRows=65
nColumns=12
inDegrees=yes

Units are S.I. units (second, meters, Newtons, ...)
Angles are in degrees

endheader
time	SC_y	SC_z	SC_x	AC_y	AC_z	AC_x	GH_y	GH_z	GH_yy	EL_x	PS_y
       0.0              -59.17         -4.835          40.83          56.23          4.742        -0.9905         -24.69          61.21          31.32          21.84          38.26
   0.02645              -59.17         -4.835          40.83          56.23          4.741        -0.9931         -24.69           61.2          31.33          21.85          38.27
   0.05289              -59.16         -4.834          40.84          56.23          4.739        -0.9959         -24.69           61.2          31.33          21.87          38.28
   0.07934              -59.16         -4.834          40.84          56.23          4.738        -0.9988         -24.69          61.19          31.34          21.89          38.28
    0.1058              -59.16         -4.833          40.84          56.23          4.736         -1.002         -24.69          61.19          31.35          21.91          38.29
    0.1322              -59.16         -4.833          40.85          56.23          4.734         -1.005         -24.69          61.18          31.36          21.93           38.3
    0.1587              -59.16         -4.832          40.85          56.23          4.732         -1.009         -24.69          61.17          31.36          21.96          38.31
    0.1851              -59.16         -4.832          40.86          56.23           4.73         -1.013         -24.68          61.17          31.37          21.98          38.32
    0.2116              -59.16         -4.831          40.87          56.22          4.727         -1.017         -24.68          61.16          31.38          22.01          38.33
     0.238              -59.16         -4.831          40.87          56.22          4.725         -1.021         -24.68          61.15          31.39          22.04          38.34
    0.2645              -59.15          -4.83          40.88          56.22          4.722         -1.026         -24.68          61.15           31.4          22.07          38.36
    0.2909              -59.15         -4.829          40.89          56.22          4.719         -1.031         -24.68          61.14          31.42           22.1          38.37
    0.3174              -59.15         -4.829           40.9          56.22          4.716         -1.036         -24.67          61.13          31.43          22.13          38.38
    0.3438              -59.15         -4.828           40.9          56.21          4.712         -1.042         -24.67          61.12          31.44          22.17           38.4
    0.3703              -59.15         -4.827          40.91          56.21          4.708         -1.049         -24.67          61.11          31.46          22.21          38.42
    0.3967              -59.15         -4.826          40.92          56.21          4.704         -1.056         -24.67           61.1          31.48          22.26          38.43
    0.4232              -59.14         -4.825          40.93          56.21            4.7         -1.063         -24.66          61.08          31.49          22.31          38.45
    0.4496              -59.14         -4.824          40.95           56.2          4.695         -1.072         -24.66          61.07          31.51          22.36          38.48
     0.476              -59.14         -4.823          40.96           56.2           4.69          -1.08         -24.65          61.06          31.53          22.42           38.5
    0.5025              -59.13         -4.821          40.97           56.2          4.684          -1.09         -24.65          61.04          31.56          22.48          38.53
    0.5289              -59.13          -4.82          40.99          56.19          4.678         -1.101         -24.64          61.02          31.58          22.55          38.55
    0.5554              -59.13         -4.818          41.01          56.19          4.671         -1.113         -24.64           61.0          31.61          22.63          38.58
    0.5818              -59.12         -4.816          41.03          56.18          4.663         -1.126         -24.63          60.98          31.64          22.72          38.62
    0.6083              -59.12         -4.815          41.05          56.18          4.655         -1.141         -24.63          60.96          31.68          22.81          38.66
    0.6347              -59.11         -4.812          41.07          56.17          4.645         -1.157         -24.62          60.93          31.72          22.92           38.7
    0.6612              -59.11          -4.81           41.1          56.16          4.635         -1.175         -24.61           60.9          31.76          23.03          38.75
    0.6876               -59.1         -4.807          41.13          56.15          4.623         -1.195          -24.6          60.86          31.81          23.16           38.8
    0.7141              -59.09         -4.804          41.16          56.15           4.61         -1.218         -24.59          60.83          31.86          23.31          38.86
    0.7405              -59.08         -4.801           41.2          56.14          4.595         -1.243         -24.58          60.78          31.92          23.48          38.93
     0.767              -59.07         -4.797          41.24          56.12          4.578         -1.273         -24.57          60.74          31.99          23.67          39.01
    0.7934              -59.06         -4.792          41.29          56.11          4.559         -1.306         -24.55          60.68          32.07          23.88          39.09
    0.8199              -59.05         -4.787          41.34           56.1          4.536         -1.344         -24.54          60.62          32.16          24.13          39.19
    0.8463              -59.04         -4.781          41.41          56.08          4.511         -1.388         -24.52          60.54          32.27          24.42          39.31
    0.8728              -59.02         -4.774          41.48          56.06          4.481         -1.439         -24.49          60.46          32.39          24.75          39.44
    0.8992               -59.0         -4.766          41.57          56.04          4.446         -1.499         -24.47          60.36          32.53          25.14           39.6
    0.9256              -58.98         -4.756          41.67          56.01          4.405          -1.57         -24.44          60.24           32.7           25.6          39.79
    0.9521              -58.95         -4.745           41.8          55.97          4.356         -1.654          -24.4           60.1           32.9          26.15          40.01
    0.9785              -58.92         -4.731          41.94          55.94          4.297         -1.754         -24.35          59.93          33.14           26.8          40.27
     1.005              -58.88         -4.714          42.12          55.89          4.226         -1.876          -24.3          59.73          33.42          27.59           40.6
     1.031              -58.83         -4.694          42.34          55.83          4.139         -2.025         -24.23          59.48          33.78          28.56          40.99
     1.058              -58.77         -4.669          42.61          55.76          4.032         -2.208         -24.15          59.18          34.21          29.75          41.47
     1.084              -58.69         -4.638          42.94          55.67          3.899         -2.437         -24.05           58.8          34.76          31.24          42.07
     1.111               -58.6         -4.599          43.36          55.55           3.73         -2.725         -23.92          58.32          35.44          33.11          42.83
     1.137              -58.48         -4.549           43.9          55.41          3.517         -3.092         -23.76          57.71          36.31          35.49           43.8
     1.164              -58.32         -4.485          44.58          55.23          3.243         -3.561         -23.55          56.92          37.43          38.54          45.04
      1.19              -58.13         -4.403          45.46          54.99          2.892         -4.163         -23.29          55.92          38.86          42.46          46.62
     1.217              -57.88         -4.298          46.58          54.69          2.443         -4.932         -22.94          54.64          40.69          47.45          48.65
     1.243              -57.56         -4.166          47.99          54.31          1.879         -5.899         -22.51          53.03          42.98          53.74           51.2
     1.269              -57.17         -4.006          49.71          53.85          1.192         -7.077         -21.99          51.07          45.78           61.4           54.3
     1.296              -56.73          -3.82          51.71          53.31         0.3953         -8.442         -21.38          48.79          49.03          70.27           57.9
     1.322              -56.24         -3.618          53.87          52.73        -0.4673         -9.921         -20.73          46.33          52.54          79.89           61.8
     1.349              -55.76         -3.417          56.03          52.15          -1.33          -11.4         -20.07          43.86          56.05           89.5          65.69
     1.375              -55.31         -3.231          58.02          51.61         -2.127         -12.77         -19.46          41.59           59.3          98.37          69.29
     1.402              -54.92          -3.07          59.74          51.15         -2.814         -13.94         -18.94          39.63           62.1          106.0           72.4
     1.428              -54.61         -2.939          61.15          50.77         -3.378         -14.91         -18.51          38.02          64.39          112.3          74.94
     1.455              -54.36         -2.834          62.27          50.47         -3.827         -15.68         -18.17          36.74          66.22          117.3          76.97
     1.481              -54.16         -2.752          63.15          50.23         -4.178         -16.28          -17.9          35.73          67.65          121.2          78.56
     1.507               -54.0         -2.688          63.84          50.05         -4.451         -16.75         -17.69          34.95          68.77          124.3          79.79
     1.534              -53.88         -2.638          64.37           49.9         -4.665         -17.12         -17.53          34.34          69.64          126.7          80.76
      1.56              -53.79         -2.599          64.79          49.79         -4.833         -17.41          -17.4          33.86          70.32          128.5          81.52
     1.587              -53.72         -2.567          65.13           49.7         -4.967         -17.63          -17.3          33.48          70.87          130.0          82.12
     1.613              -53.66         -2.542           65.4          49.63         -5.074         -17.82         -17.22          33.17           71.3          131.2           82.6
      1.64              -53.61         -2.522          65.61          49.57         -5.161         -17.97         -17.15          32.93          71.65          132.2           83.0
     1.666              -53.57         -2.506          65.79          49.52         -5.232         -18.09          -17.1          32.72          71.94          133.0          83.32
     1.693              -53.53         -2.492          65.94          49.48          -5.29         -18.19         -17.06          32.56          72.18          133.6          83.58
